<?xml version="1.0" encoding="utf-8"?>
<!-- Generator: Adobe Illustrator 23.0.1, SVG Export Plug-In . SVG Version: 6.00 Build 0)  -->
<svg version="1.1" id="Layer_1" xmlns="http://www.w3.org/2000/svg" xmlns:xlink="http://www.w3.org/1999/xlink" x="0px" y="0px"
	 viewBox="0 0 660 150" style="enable-background:new 0 0 660 150;" xml:space="preserve">
<style type="text/css">
	.st0{fill:#00B451;}
	.st1{fill:#FCB516;}
	.st2{fill:#F37C29;}
	.st3{fill:#CB3D2C;}
	.st4{fill:#515051;}
</style>
<g>
	<g>
		<polygon class="st0" points="18.7,113.4 0.1,102.9 0.1,47.6 18.7,36.9 		"/>
		<polygon class="st1" points="46.4,129.6 28,118.9 28,31.4 46.4,20.4 		"/>
		<polygon class="st2" points="74.3,118.9 55.8,129.6 55.8,20.4 74.3,31.2 		"/>
		<polygon class="st3" points="102.1,102.9 83.7,113.4 83.7,71.1 102.1,81.8 		"/>
	</g>
	<g>
		<path class="st4" d="M173.4,101h-11.8V79.7h-20.5V101h-11.8V50.5h11.8v21.1h20.5V50.5h11.8V101z"/>
		<path class="st4" d="M217.1,50.5v9h-20.8v11.8h15.9v8.7h-15.9V92h20.8v9h-32.5V50.5H217.1z"/>
		<path class="st4" d="M273.6,101h-9.1c-1,0-1.8-0.2-2.5-0.7c-0.7-0.5-1.1-1-1.4-1.8l-3-8.8h-19.3l-3,8.8c-0.2,0.7-0.7,1.3-1.4,1.7
			c-0.7,0.6-1.5,0.8-2.5,0.8h-9.1L242,50.5h12L273.6,101z M241.1,81.7h13.8l-4.7-13.8c-0.3-0.9-0.7-1.9-1-3.1
			c-0.5-1.1-0.8-2.5-1.1-3.9c-0.3,1.4-0.8,2.7-1.1,3.9c-0.3,1.3-0.8,2.3-1.1,3.1L241.1,81.7z"/>
		<path class="st4" d="M292.2,91.7h18.7v9.4h-30.5V50.5h11.8L292.2,91.7L292.2,91.7z"/>
		<path class="st4" d="M349.7,50.5v9.4h-14.3v41.3h-11.8V59.7h-14.3v-9.4h40.3V50.5z"/>
		<path class="st4" d="M401.6,101h-11.8V79.7h-20.5V101h-11.9V50.5h11.8v21.1h20.5V50.5h11.8V101H401.6z"/>
		<path class="st4" d="M412.6,101V50.5h18.6c3.5,0,6.5,0.3,8.9,1c2.4,0.7,4.5,1.6,6,2.7s2.6,2.6,3.4,4.3c0.7,1.7,1,3.5,1,5.7
			c0,1.1-0.1,2.3-0.5,3.3s-0.8,2.1-1.5,3c-0.7,0.9-1.6,1.7-2.6,2.5c-1.1,0.8-2.4,1.4-3.9,1.9c3.3,0.8,5.8,2.2,7.4,4
			c1.6,1.8,2.4,4.1,2.4,7c0,2.2-0.5,4.1-1.3,6c-0.8,1.8-2.1,3.4-3.7,4.8c-1.6,1.4-3.5,2.5-5.9,3.2c-2.4,0.8-5,1.1-8.1,1.1h-20.4V101
			z M424.4,71.7h6.2c1.3,0,2.5-0.1,3.5-0.2c1-0.2,1.9-0.5,2.6-1c0.7-0.5,1.3-1.1,1.7-1.9c0.3-0.8,0.6-1.8,0.6-3.1s-0.1-2.2-0.5-3
			c-0.3-0.8-0.8-1.5-1.4-1.9c-0.6-0.5-1.4-0.8-2.4-1c-0.9-0.2-2.1-0.3-3.4-0.3h-6.8v12.6H424.4z M424.4,79.6v12.6h8.2
			c1.6,0,2.9-0.2,3.8-0.6c1-0.3,1.7-0.9,2.3-1.5c0.6-0.6,0.9-1.4,1.1-2.2c0.2-0.8,0.3-1.6,0.3-2.4c0-0.9-0.1-1.7-0.3-2.5
			c-0.2-0.8-0.7-1.4-1.3-1.8c-0.6-0.5-1.4-0.9-2.4-1.1c-0.9-0.2-2.2-0.5-3.7-0.5H424.4z"/>
		<path class="st4" d="M493.6,50.5v9h-20.8v11.8h15.9v8.7h-15.9V92h20.8v9H461V50.5H493.6z"/>
		<path class="st4" d="M550.1,101h-9.1c-1,0-1.8-0.2-2.5-0.7c-0.7-0.5-1.1-1-1.4-1.8l-3-8.8h-19.2l-3,8.8c-0.2,0.7-0.7,1.3-1.4,1.7
			c-0.7,0.6-1.5,0.8-2.5,0.8h-9.1l19.6-50.6h12L550.1,101z M517.5,81.7h13.8l-4.7-13.8c-0.3-0.9-0.7-1.9-1-3.1
			c-0.5-1.1-0.8-2.5-1.1-3.9c-0.3,1.4-0.8,2.7-1.1,3.9c-0.3,1.3-0.8,2.3-1.1,3.1L517.5,81.7z"/>
		<path class="st4" d="M588.2,50.5v9.4h-14.3v41.3h-11.8V59.7h-14.3v-9.4h40.3V50.5z"/>
		<path class="st4" d="M623.9,60.7c-0.3,0.6-0.7,0.9-1.1,1.3c-0.3,0.2-0.9,0.5-1.5,0.5c-0.6,0-1.1-0.1-1.7-0.5
			c-0.6-0.3-1.3-0.7-2.1-1.1c-0.8-0.5-1.7-0.8-2.6-1.1c-1-0.3-2.2-0.5-3.4-0.5c-2.2,0-3.9,0.5-4.9,1.4s-1.6,2.2-1.6,3.8
			c0,1,0.3,1.8,1,2.5c0.7,0.7,1.5,1.3,2.5,1.7c1,0.5,2.3,0.9,3.7,1.4c1.4,0.5,2.7,0.8,4.1,1.4c1.4,0.5,2.7,1,4.1,1.7
			c1.4,0.7,2.5,1.5,3.7,2.6c1,1,1.9,2.3,2.5,3.8c0.7,1.5,0.9,3.3,0.9,5.4c0,2.3-0.5,4.6-1.3,6.6s-1.9,3.8-3.5,5.4
			c-1.5,1.5-3.4,2.7-5.7,3.5c-2.3,0.9-4.8,1.3-7.6,1.3c-1.6,0-3.2-0.1-4.8-0.5c-1.6-0.3-3.2-0.8-4.8-1.4c-1.5-0.6-3-1.3-4.3-2.1
			c-1.4-0.8-2.5-1.7-3.5-2.7l3.4-5.5c0.2-0.5,0.6-0.8,1-1c0.5-0.2,0.9-0.3,1.5-0.3c0.7,0,1.4,0.2,2.1,0.7c0.7,0.5,1.5,0.9,2.4,1.5
			s1.9,1,3.1,1.5c1.1,0.5,2.5,0.7,4.1,0.7c2.2,0,3.8-0.5,4.9-1.4c1.1-0.9,1.8-2.4,1.8-4.5c0-1.1-0.3-2.2-0.9-2.9
			c-0.7-0.8-1.5-1.4-2.5-1.8c-1-0.5-2.3-0.9-3.5-1.3c-1.4-0.3-2.7-0.8-4.1-1.3c-1.4-0.5-2.7-1-4.1-1.7s-2.5-1.5-3.5-2.6
			c-1-1-1.9-2.4-2.5-4c-0.7-1.6-1-3.5-1-5.9c0-1.9,0.3-3.8,1.1-5.6c0.8-1.8,1.9-3.4,3.4-4.8c1.5-1.4,3.3-2.5,5.5-3.4
			c2.2-0.8,4.6-1.3,7.4-1.3c1.6,0,3.1,0.1,4.6,0.3c1.5,0.2,2.9,0.6,4.2,1s2.5,1,3.7,1.7c1.1,0.7,2.2,1.4,3.1,2.3L623.9,60.7z"/>
		<path class="st4" d="M643.3,48.4v3.4h-3.1v9h-4.3v-9h-3v-3.4H643.3z M651.4,53.4c0.2,0.6,0.5,1.1,0.7,1.7c0.1-0.2,0.2-0.6,0.3-0.8
			c0.1-0.2,0.2-0.6,0.3-0.8l2.1-4.3c0.2-0.2,0.5-0.5,0.6-0.6s0.5-0.1,0.8-0.1h3.8V61h-3.8v-5.1l0.2-2.3L654,59
			c-0.1,0.2-0.3,0.5-0.6,0.7c-0.2,0.1-0.6,0.2-0.9,0.2h-0.6c-0.3,0-0.6-0.1-0.9-0.2c-0.2-0.1-0.5-0.3-0.6-0.7l-2.4-5.4l0.2,2.2V61
			h-3.8V48.4h3.8c0.2,0,0.3,0,0.5,0c0.1,0,0.2,0,0.3,0.1c0.1,0.1,0.2,0.1,0.2,0.2c0.1,0.1,0.2,0.2,0.3,0.3L651.4,53.4z"/>
	</g>
</g>
</svg>
